# xmcd
#
# Track frame offsets: 
#        150
#        11815
#        28230
#        41890
#        57157
#        71227
#        88367
#        106235
#        126590
#        145180
#        163350
#        176115
#        196197
#
# Disc length: 2805 seconds
#
# Revision: 2
# Processed by: cddbd v1.5.1PL2 Copyright (c) Steve Scherf et al.
# Submitted via: ExactAudioCopy v0.95b4
#
DISCID=cc0af30d
DTITLE=Steve Earle - Essential Steve Earle
DYEAR=1993
DGENRE=Singer/Songwriter
TTITLE0=Guitar Town
TTITLE1=Hillbilly Highway
TTITLE2=The Devil's Right Hand
TTITLE3=Goodbye's All We Got Left To Say
TTITLE4=Six Days On The Road
TTITLE5=Someday
TTITLE6=Good Ol' Boy (Gettin' Tough)
TTITLE7=Copperhead Road
TTITLE8=The Rain Came Down
TTITLE9=I Ain't Ever Satisfied
TTITLE10=Nowhere  Road
TTITLE11=The Week of Living Dangerously
TTITLE12=Continental Trailways Blues
EXTD=
EXTT0=
EXTT1=
EXTT2=
EXTT3=
EXTT4=
EXTT5=
EXTT6=
EXTT7=
EXTT8=
EXTT9=
EXTT10=
EXTT11=
EXTT12=
PLAYORDER=
